<svg version="1.0"
  xmlns="http://www.w3.org/2000/svg" width="1200" height="800" viewBox="0 0 3000.000000 1866.000000">
  <style>
        path{
           -o-transition: fill .2s;
           -ms-transition: fill .2s;
           -moz-transition: fill .2s;
           -webkit-transition: fill .2s;
          transition: fill .2s;
        }
        a path:hover{
          fill:rgba(2,179,228,1);
        }
  </style>
  <g transform="translate(0.000000,1866.000000) scale(0.100000,-0.100000)" fill="none" stroke="none">
    <rect x="0" y="0" width="30000" height="18660" fill="none"></rect>
    <a xmlns:xlink="https://www.w3.org/1999/xlink">
      <path fill="#cccccc" stroke="none" d="M20010 14086 l-75 -12 -81 -28 -82 -28
-67 -51 -68 -52 -20 -27 -21 -28 -12 -87 -12 -88 8 -280 8 -280 24 -105 25
-105 12 -65 13 -65 19 -44 19 -44 35 -38 35 -39 0 -35 0 -35 -77 -36 -78 -36
-58 -20 -58 -19 -137 -68 -137 -69 -46 -21 -46 -21 -67 -66 -68 -66 5 -25 4
-24 -13 -13 -13 -13 -22 -124 -22 -124 12 -223 12 -222 15 -36 15 -35 -6 -57
-7 -57 19 -20 18 -20 0 -10 0 -10 8 -95 8 -95 19 -141 19 -142 24 -58 25 -59
11 -116 11 -115 0 -235 0 -234 -15 -145 -14 -145 -45 -160 -46 -160 -40 -184
-40 -183 -35 -103 -34 -103 -21 -163 -21 -164 -35 -100 -36 -100 -19 -70 -20
-70 6 -42 6 -42 18 -23 19 -23 22 -110 22 -110 14 -30 13 -30 5 -25 5 -25 15
-55 16 -55 29 -125 30 -125 10 -55 11 -55 10 -88 11 -88 14 -32 14 -32 27 -70
26 -70 10 -12 10 -13 -6 0 -7 0 20 -37 20 -38 49 -110 49 -110 7 -30 6 -30 5
-20 4 -20 20 -75 20 -75 5 -25 5 -25 15 -55 15 -55 5 -30 6 -30 19 -95 20 -95
16 -83 16 -83 29 -76 29 -76 12 -81 11 -80 24 -60 24 -59 13 -16 14 -16 12
-275 11 -275 0 -135 0 -135 21 -155 20 -155 4 -155 3 -155 26 -200 26 -200 0
-108 0 -109 11 -194 11 -195 -18 -26 -17 -26 -105 -108 -106 -108 -55 -35 -56
-34 -75 -37 -75 -38 -20 -8 -20 -9 -85 -24 -85 -24 -43 -7 -42 -7 -51 -18 -52
-19 -19 -18 -20 -18 -29 -58 -29 -59 0 -7 0 -6 28 -12 27 -12 30 -11 30 -11
40 -9 40 -9 60 -16 60 -16 35 -4 35 -4 130 -1 130 0 55 6 55 6 80 14 80 13 33
10 34 10 36 22 37 22 55 29 55 29 95 5 95 6 19 -15 20 -14 -13 -70 -12 -70 -1
-32 -1 -33 29 -23 29 -23 55 -17 55 -18 20 -6 20 -7 135 -3 135 -3 85 12 85
11 35 17 35 18 38 74 37 75 21 70 21 70 -5 62 -6 62 -16 36 -15 37 0 29 0 29
25 40 25 40 0 9 0 9 13 11 14 11 11 52 11 53 6 124 6 123 19 127 19 126 36
180 36 180 1 15 1 15 39 185 39 185 4 30 5 30 9 150 9 150 6 280 6 280 12 148
11 148 -12 108 -13 108 7 34 7 34 18 40 19 40 51 250 50 250 5 30 4 30 12 68
11 67 -6 53 -5 52 -6 27 -5 28 -5 32 -5 33 -6 45 -6 45 -2 53 -1 52 -5 0 -5 0
3 195 4 195 -12 0 -11 0 3 63 2 62 -19 30 -20 30 -37 38 -37 37 -9 0 -8 0 -40
38 -40 37 -22 32 -23 33 -4 17 -3 18 -13 50 -12 50 -10 20 -10 20 -4 25 -5 25
-3 43 -3 42 9 0 9 0 0 25 0 25 16 42 16 43 8 16 8 16 -2 34 -3 34 -14 30 -15
30 2 20 3 20 5 23 5 23 6 88 6 88 1 157 2 157 8 5 9 6 1 136 1 137 3 170 3
170 6 55 6 55 3 210 4 210 6 100 6 100 7 25 6 25 3 25 4 25 5 50 6 50 4 40 5
40 4 40 5 40 6 35 5 35 5 55 6 55 5 40 6 40 3 55 4 55 6 35 6 35 4 20 5 20 10
45 10 45 6 25 6 25 3 30 3 30 5 25 6 25 6 75 6 75 6 55 5 55 2 20 3 20 7 17 8
16 2 14 3 13 12 30 13 30 3 10 2 10 15 33 15 33 -4 92 -4 92 -9 3 -9 3 15 41
14 41 0 38 0 39 -15 0 -15 0 -6 25 -6 26 24 37 25 37 37 20 36 20 0 7 0 7 40
22 40 23 0 10 0 9 6 -6 6 -5 46 27 47 27 35 14 35 15 8 1 7 2 13 1 13 1 18 13
17 13 -26 49 -25 50 -39 40 -39 40 9 17 9 17 -36 27 -36 28 -81 42 -82 43
-135 67 -135 67 -50 14 -50 14 -15 4 -15 3 -40 11 -40 10 -55 16 -54 15 -22 0
-22 0 -16 6 -16 6 -46 61 -46 60 -24 66 -25 66 -19 42 -20 43 0 15 0 15 39 25
40 24 20 22 20 21 31 97 32 96 5 76 6 75 -12 21 -11 21 -30 7 -30 7 -9 16 -8
17 -2 70 -2 70 -5 35 -6 35 -24 81 -24 81 -21 27 -21 27 -79 59 -80 60 -8 0
-9 0 -4 13 -5 12 -154 2 -154 2 -75 -13z"></path>
    </a>
    <a xmlns:xlink="https://www.w3.org/1999/xlink">
      <path fill="#cccccc" stroke="none" d="M8850 14035 l-35 -13 -45 -1 -45 -1
-53 -25 -53 -25 -43 -30 -42 -31 -85 -32 -84 -32 -22 -16 -22 -15 -26 -55 -25
-54 0 -14 0 -14 -26 -45 -26 -44 6 -37 6 -36 9 -53 10 -52 -6 -48 -6 -47 -11
-7 -11 -8 -20 0 -21 0 -23 -16 -23 -17 5 -66 6 -66 15 -101 14 -101 21 -42 22
-41 39 -38 40 -37 0 -20 0 -20 34 -97 33 -97 -46 -87 -46 -87 -46 -18 -46 -18
-39 9 -39 10 -32 0 -33 0 -277 -105 -278 -105 -159 -73 -159 -72 -28 -26 -29
-27 11 -31 11 -32 -15 -17 -16 -17 -20 -49 -21 -48 -25 -97 -24 -96 -25 -140
-25 -140 -26 -190 -26 -190 -19 -132 -20 -131 0 -84 0 -85 -10 -104 -10 -104
-16 -285 -16 -285 -3 -225 -4 -225 -10 -160 -10 -160 -7 -235 -6 -235 12 -45
12 -44 7 -146 7 -145 38 -72 37 -72 8 -78 9 -78 11 -29 12 -29 9 -41 9 -42 10
-120 10 -119 21 -57 21 -57 30 -25 29 -25 0 -28 0 -28 -15 -85 -15 -85 5 -35
6 -35 59 -95 58 -95 21 -11 22 -11 24 -23 25 -23 32 1 33 1 17 -16 17 -15 53
4 53 3 8 -100 8 -100 -5 -70 -4 -71 -28 -138 -27 -139 17 -136 17 -136 40
-284 39 -283 6 -27 7 -26 20 -37 20 -37 54 -22 54 -22 8 -16 9 -16 8 -40 7
-40 52 -135 53 -135 15 -55 15 -55 6 -102 5 -102 15 -59 16 -59 45 -136 46
-136 49 -388 50 -388 15 -205 15 -205 6 -71 7 -72 -7 -56 -7 -56 -29 0 -28 0
-6 -22 -6 -23 0 -22 0 -23 -30 0 -30 0 -63 -64 -64 -65 -61 -17 -61 -17 -42
-56 -42 -56 -13 -32 -14 -31 -10 -48 -11 -48 5 -22 6 -21 32 -14 33 -14 275 1
275 0 100 18 100 18 94 24 93 23 22 20 21 19 72 71 72 71 26 45 27 45 13 0 14
0 26 -12 25 -11 0 -82 0 -82 48 -21 47 -22 112 29 112 30 66 -42 65 -42 88
-56 87 -57 50 -17 50 -17 260 -1 260 -1 69 22 69 21 4 4 4 4 -14 29 -14 29
-19 40 -19 39 -54 38 -54 37 -96 37 -96 37 -62 41 -62 41 -152 150 -152 150
-23 50 -24 50 0 65 0 65 10 65 9 65 46 360 45 360 51 370 50 370 25 170 26
170 19 80 19 80 0 44 0 45 -21 44 -22 44 5 71 5 72 22 60 22 60 35 135 35 135
35 80 35 80 54 132 54 132 40 120 41 121 19 98 20 97 11 104 10 103 0 87 0 87
37 45 37 44 72 75 72 75 11 40 11 40 0 61 0 61 10 53 10 53 41 129 40 129 36
34 36 34 32 195 32 195 -4 58 -4 58 -20 200 -19 200 -20 76 -19 76 -7 179 -6
179 11 430 12 430 14 390 15 390 0 227 0 228 -44 137 -43 138 -7 63 -6 62 -36
98 -36 97 -34 63 -34 62 12 19 11 19 -13 61 -13 61 -11 15 -11 14 -113 31
-112 30 -20 0 -19 0 -173 44 -173 44 -190 41 -190 40 -63 33 -62 33 -6 18 -6
18 40 52 40 52 25 50 24 50 18 60 17 60 29 90 29 90 20 100 21 100 0 67 1 67
-7 11 -7 12 12 77 13 77 -45 134 -45 135 -107 60 -107 60 -22 21 -22 20 -27
35 -26 36 -70 36 -70 37 -33 -1 -34 -1 -35 -13z"></path>
    </a>
    <a xmlns:xlink="https://www.w3.org/1999/xlink">
      <path fill="#cccccc" stroke="none" d="M27725 14034 l-10 -3 -95 -4 -95 -4
-42 -22 -43 -21 0 5 0 5 -40 -25 -40 -25 -10 0 -11 0 -52 -40 -52 -40 -55 -52
-55 -53 -32 -50 -32 -50 -11 -12 -11 -13 5 0 5 0 -19 -43 -19 -43 4 -65 4 -64
6 -255 7 -255 4 -30 4 -30 4 -50 5 -50 34 -75 35 -75 18 -44 19 -45 45 -45 46
-46 29 -53 28 -52 9 0 8 0 0 -7 0 -8 -68 -50 -67 -49 -10 -8 -10 -8 -60 -45
-60 -45 -49 -42 -49 -43 -39 -29 -39 -29 7 -16 6 -16 5 -17 5 -17 -29 -48 -28
-48 -17 -35 -16 -35 -23 -50 -23 -50 -3 -20 -3 -20 -6 -40 -6 -40 -2 -30 -3
-30 -8 -48 -7 -48 -34 -34 -34 -35 -21 -42 -22 -43 -32 -95 -33 -95 4 -370 4
-370 12 -82 11 -82 -26 -73 -25 -73 -6 -130 -5 -130 -21 -155 -21 -155 -24
-140 -24 -140 -20 -160 -20 -160 -11 -105 -10 -106 -9 -159 -9 -160 -50 -250
-51 -250 -31 -139 -31 -139 5 -13 5 -13 58 -29 58 -29 50 -18 50 -18 11 -9 11
-8 7 -63 6 -62 21 -100 20 -100 5 -30 4 -30 7 -20 7 -20 3 -15 4 -15 4 -31 5
-31 16 -39 16 -39 -1 -2 0 -3 3 -12 4 -13 22 -70 22 -70 13 -20 12 -20 7 -40
8 -40 10 -12 10 -13 -6 0 -6 0 15 -38 15 -37 3 -20 4 -20 11 -40 11 -40 6 -30
5 -30 5 -30 6 -30 9 -30 9 -30 10 -50 11 -50 6 -20 6 -20 3 -20 3 -20 2 0 2 0
4 -35 5 -35 11 -35 12 -35 1 -10 2 -10 2 -5 3 -5 4 -20 5 -20 4 -15 3 -15 3 0
2 0 3 -20 3 -20 11 -40 11 -40 5 -24 5 -24 11 -21 11 -21 -1 -3 -2 -2 6 -28 7
-27 12 -25 13 -25 6 -40 6 -40 11 -33 11 -33 2 -22 3 -22 38 -95 38 -95 9 -11
8 -11 6 -44 5 -44 16 -45 17 -45 35 -55 36 -55 2 -50 2 -50 6 -45 5 -45 4 -30
5 -30 5 -40 5 -40 6 -40 6 -40 5 -40 5 -40 6 -45 5 -45 3 -55 3 -55 7 -70 6
-70 11 -40 11 -40 4 -20 4 -20 3 -25 3 -25 2 0 3 0 3 -15 4 -15 14 -61 14 -61
2 -83 2 -82 4 -11 4 -12 6 -30 6 -30 5 -25 4 -25 4 -20 4 -20 7 -25 6 -25 4
-27 3 -27 6 -9 5 -9 6 -39 6 -39 5 -35 5 -35 10 -40 11 -40 4 -45 4 -45 14
-107 15 -107 0 -18 0 -18 5 -40 5 -40 5 -50 5 -50 7 -25 7 -25 1 -20 1 -20
-19 -35 -20 -35 -27 -30 -28 -30 -25 -27 -25 -28 -8 -12 -8 -13 -57 -47 -56
-48 -10 0 -10 0 -13 -16 -13 -16 -88 -44 -88 -44 -2 1 -3 1 -40 -16 -39 -17
-36 -5 -35 -5 -15 -6 -15 -6 -15 -3 -15 -3 -15 -3 -15 -4 -55 -17 -55 -16 -25
-23 -25 -23 -2 -10 -1 -10 -21 -52 -20 -52 46 -21 46 -20 22 -4 22 -4 46 -16
45 -15 49 -6 48 -6 20 -7 20 -6 30 -2 30 -2 131 -1 131 0 24 4 24 4 60 5 60 6
30 5 30 6 15 6 15 6 5 1 6 1 42 19 42 19 0 9 0 8 16 0 15 0 42 28 42 27 15 4
15 4 40 3 41 3 13 -9 14 -8 -1 -23 0 -24 -7 -50 -8 -50 0 -20 0 -20 4 -15 4
-15 55 -32 55 -33 55 -11 55 -12 35 -3 35 -3 100 -3 100 -4 15 7 15 7 60 5 60
5 39 17 39 17 18 21 17 22 8 30 7 30 -2 7 -1 7 21 48 21 48 5 25 5 25 0 40 0
40 -4 15 -4 15 -7 12 -8 13 5 0 6 0 -25 56 -25 56 0 20 0 19 38 77 38 78 2
220 2 219 6 129 5 130 6 10 7 10 3 50 3 51 5 40 4 40 6 45 6 45 5 45 5 45 5
45 5 45 9 115 9 115 7 25 7 25 3 25 3 24 -9 6 -9 6 -6 194 -6 195 -5 30 -5 30
-5 170 -4 170 -6 25 -5 24 -4 126 -3 125 -7 30 -6 30 -4 20 -3 20 -2 0 -2 0
-5 20 -5 20 -2 48 -3 48 18 52 18 53 7 29 7 30 8 200 7 200 17 65 16 65 0 26
-1 26 15 44 16 44 -1 45 -1 45 5 30 6 30 10 50 10 50 0 40 0 40 0 15 -1 15 0
85 0 85 1 25 2 25 4 474 5 474 15 28 15 29 -6 0 -5 0 15 23 15 24 -5 4 -5 5
25 67 24 67 -5 0 -4 0 14 23 14 22 5 32 5 32 6 10 7 11 4 27 4 28 6 25 5 25 5
26 5 26 21 47 21 48 3 31 3 32 2 3 3 2 1 13 2 12 -10 20 -10 20 -4 30 -4 30
-4 170 -4 170 25 53 25 54 0 10 0 9 20 44 20 44 29 17 29 17 11 24 11 24 0 19
0 20 10 0 10 0 0 44 0 45 -9 5 -9 6 -5 19 -5 20 14 25 13 26 -4 0 -4 0 15 35
14 34 6 38 6 38 14 34 14 34 5 31 4 31 4 15 4 15 10 40 11 40 6 55 6 55 6 30
7 30 0 35 1 35 -8 135 -7 135 -5 50 -5 50 -3 30 -2 30 16 35 16 35 -2 20 -1
20 -21 36 -20 36 6 10 7 10 20 11 20 10 -4 134 -4 133 -4 65 -4 65 -4 35 -4
35 -6 140 -5 140 -6 40 -6 40 -4 100 -5 100 -6 25 -6 25 -2 10 -3 10 -7 35 -6
35 0 40 0 40 3 20 3 20 -18 65 -19 65 -19 45 -20 45 -4 20 -4 20 -18 55 -18
55 -44 80 -45 80 -8 3 -8 4 0 13 0 13 -25 23 -25 24 0 13 0 12 10 0 10 0 0 15
0 16 -20 -11 -19 -10 -13 15 -13 16 -40 41 -39 41 -56 36 -55 36 -5 6 -5 6
-32 17 -32 16 -43 28 -43 29 -68 28 -68 28 -22 18 -22 18 -17 17 -17 17 -16
51 -16 51 -16 50 -16 50 -20 34 -21 35 -3 20 -3 21 0 99 1 100 7 10 6 11 2 15
2 15 5 21 5 21 31 61 31 61 0 16 0 15 10 0 10 0 -4 34 -4 34 -11 20 -11 21
-22 7 -23 8 -7 2 -8 2 -5 2 -5 3 -18 1 -19 1 -17 14 -17 14 1 61 0 61 -4 35
-4 35 -5 20 -5 20 -12 44 -12 44 -11 13 -12 13 -10 13 -11 13 -53 65 -54 65
-41 30 -41 29 -5 8 -6 7 -57 26 -58 27 -22 3 -22 4 -33 5 -32 5 -8 4 -7 4 -10
-3z"></path>
    </a>
    <a xmlns:xlink="https://www.w3.org/1999/xlink">
      <path fill="#cccccc" stroke="none" d="M17395 13973 l-20 -5 -45 -15 -45 -15
-57 -8 -58 -8 -57 -27 -58 -26 -27 -26 -28 -27 0 -8 0 -9 -47 -97 -47 -97 1
-55 0 -55 21 -90 21 -90 1 -63 0 -63 10 -19 10 -19 4 -128 4 -128 17 -185 17
-185 17 -50 18 -50 7 -16 7 -16 -23 -15 -23 -14 -105 -37 -105 -36 -55 -15
-55 -15 -170 -59 -170 -59 -106 -42 -106 -41 -16 -18 -16 -18 -15 -59 -14 -60
-41 -114 -41 -114 0 -12 0 -13 29 -12 29 -11 21 -25 21 -24 0 -17 0 -17 29
-31 29 -30 25 -80 26 -80 21 -80 21 -80 49 -195 49 -195 29 -145 29 -145 1
-15 1 -15 11 -44 11 -44 -5 -14 -5 -13 8 0 8 0 22 -162 21 -163 20 -195 20
-195 16 -160 16 -160 -7 -105 -6 -105 -15 -165 -14 -165 -15 -110 -14 -110 -7
-140 -6 -140 -22 -107 -22 -107 8 -16 9 -15 -7 -23 -8 -22 3 -21 2 -22 -21
-173 -21 -174 -21 -47 -21 -46 6 -29 6 -28 11 -50 11 -50 -6 -130 -6 -130 -11
-47 -10 -48 -9 0 -9 0 0 -11 0 -10 -14 -15 -15 -14 -15 0 -15 0 -27 -36 -28
-36 -21 -8 -22 -8 -7 -79 -6 -79 11 -58 11 -59 25 -56 25 -56 34 -225 34 -225
45 -260 46 -260 25 -120 26 -120 35 -109 35 -110 55 -129 54 -129 9 -77 9 -76
11 -145 10 -145 20 -110 20 -110 15 -150 15 -150 20 -255 20 -255 6 -30 6 -30
35 -104 35 -103 -6 -24 -6 -23 11 -93 11 -93 -82 -135 -81 -135 -57 -53 -57
-52 -91 -75 -91 -75 -129 -78 -129 -77 -48 -64 -48 -65 -6 -24 -6 -25 10 -16
10 -16 49 -18 48 -18 112 -11 112 -10 154 11 153 11 75 16 75 16 60 20 60 20
67 35 66 35 42 35 41 35 19 -17 19 -17 103 7 103 7 17 -36 18 -36 6 -95 7 -95
1 0 1 0 75 -31 75 -31 85 -19 85 -19 75 0 75 0 34 10 34 9 31 22 31 21 36 47
36 46 12 38 13 37 -11 88 -11 87 -16 145 -15 145 -5 50 -6 50 36 176 35 176
15 160 15 160 50 209 51 209 30 180 30 180 9 85 10 85 45 196 46 195 16 105
17 104 -14 70 -13 70 2 95 2 95 20 355 20 355 4 76 5 76 45 249 46 249 15 100
16 100 10 465 10 465 4 11 3 11 57 8 56 7 6 13 5 14 -13 38 -13 38 -2 15 -2
15 -7 35 -8 35 1 18 1 17 -10 0 -10 0 5 8 5 8 -18 30 -18 29 -8 30 -8 30 0 15
0 15 6 25 7 25 5 30 6 30 2 11 3 12 13 16 13 16 -7 0 -7 0 14 23 14 22 13 44
13 44 4 21 5 21 5 25 6 25 2 30 3 30 2 5 3 5 4 40 3 40 4 30 5 30 7 40 7 40 3
10 2 10 8 33 8 32 10 0 10 0 -5 6 -6 6 14 34 14 34 -6 0 -6 0 11 13 11 14 -7
7 -7 7 11 7 11 7 6 45 7 45 4 20 5 20 4 25 5 25 10 33 10 33 -6 15 -5 14 10 0
11 0 -4 20 -4 20 11 0 10 0 -6 17 -7 16 10 6 9 6 5 35 5 35 2 0 2 0 4 20 5 20
0 18 0 17 10 0 10 0 -6 10 -6 10 11 20 11 21 5 22 5 22 5 24 5 25 6 9 6 10 4
66 3 66 0 48 -1 47 11 0 10 0 0 280 0 280 -11 0 -10 0 1 53 2 52 -7 45 -6 45
-25 54 -24 53 6 10 6 9 -11 12 -10 13 3 27 3 27 -8 0 -9 0 0 80 0 80 -10 0
-11 0 0 48 0 47 -2 52 -3 53 -16 12 -16 13 -17 75 -17 75 3 35 2 35 0 60 0 60
-5 90 -6 90 -3 102 -4 103 7 2 6 3 6 55 7 55 3 30 3 30 8 27 7 26 -24 7 -23 8
-250 98 -250 98 -72 30 -72 31 -73 0 -73 0 -34 18 -35 17 -45 98 -44 98 17 95
18 94 17 0 16 1 24 13 23 13 29 42 28 43 20 53 20 53 16 93 16 93 -5 20 -5 21
-30 18 -29 17 -21 0 -21 0 -1 33 -1 32 -1 145 -2 145 -28 60 -28 60 -27 28
-27 29 -47 24 -48 24 0 10 0 9 -65 47 -65 46 -43 13 -42 12 -130 6 -130 5 -20
-5z"></path>
    </a>
    <a xmlns:xlink="https://www.w3.org/1999/xlink">
      <path fill="#cccccc" stroke="none" d="M2295 13925 l-60 -13 -45 -17 -45 -16
-55 -31 -55 -31 -25 -19 -25 -19 -43 -41 -43 -41 -23 -46 -24 -46 -11 -53 -11
-53 0 -126 0 -125 -35 6 -35 7 -19 -11 -19 -10 -27 -53 -26 -54 10 -44 10 -44
22 -65 21 -65 19 -37 19 -38 26 -16 25 -17 25 12 25 11 8 0 8 0 7 -222 7 -223
-29 -70 -30 -70 -58 -31 -57 -32 -51 15 -51 16 -30 7 -30 7 -25 -8 -25 -7
-280 -76 -280 -77 -137 -44 -137 -44 -50 -22 -50 -21 -5 -14 -5 -14 10 -27 10
-26 -34 -66 -34 -66 -23 -85 -22 -85 -8 -10 -8 -10 -21 -110 -20 -110 -25
-160 -25 -160 -30 -245 -31 -245 -26 -395 -26 -395 -4 -180 -3 -180 -12 -178
-13 -178 17 -107 17 -107 30 -345 31 -345 10 -100 10 -100 19 -85 19 -85 10
-121 10 -120 20 -54 20 -53 33 -34 32 -33 -18 -109 -19 -110 6 -30 6 -31 62
-106 62 -106 16 -5 16 -6 26 -30 26 -30 38 -6 39 -6 12 -25 12 -25 12 -76 11
-75 -2 -285 -1 -284 16 -260 17 -260 34 -135 34 -135 16 -125 16 -125 26 -45
26 -45 78 -75 78 -75 -16 -80 -15 -80 -5 -61 -5 -62 11 -86 12 -85 -12 -84
-13 -84 19 -117 18 -117 -17 -84 -16 -84 0 -48 0 -48 26 -80 26 -80 5 -140 5
-140 15 -30 15 -30 34 -42 34 -41 0 -54 0 -53 16 -30 15 -30 8 -92 8 -93 -9
-56 -9 -57 -21 -31 -22 -31 -64 -80 -65 -80 -107 -110 -108 -110 -61 -94 -61
-93 0 -19 0 -18 20 -55 21 -55 32 -10 32 -11 105 -10 105 -11 130 6 130 6 74
10 75 9 44 26 44 26 73 70 74 69 23 1 23 1 45 42 45 41 51 42 52 42 25 0 26 0
28 -12 28 -12 110 -3 110 -3 80 -2 80 -3 75 -60 75 -60 90 -42 90 -41 80 -17
80 -16 112 -6 112 -6 78 12 78 12 77 21 78 20 -9 17 -10 16 15 16 14 15 -20
54 -20 54 -37 39 -38 38 -55 34 -55 33 -77 40 -77 40 -83 65 -83 65 -47 48
-48 48 -11 36 -11 35 -41 80 -40 80 -7 85 -8 85 29 67 30 68 19 107 20 107 40
300 39 301 11 105 10 105 20 195 21 195 25 200 26 200 1 94 2 94 -12 4 -13 5
0 18 0 18 16 61 15 61 30 72 29 71 75 142 75 142 74 174 74 174 87 185 87 185
46 120 45 120 42 135 42 135 28 115 28 115 16 19 16 18 8 87 7 86 6 75 5 75 3
90 2 90 -9 13 -9 12 8 0 8 0 -37 35 -37 35 -9 0 -10 0 -18 30 -17 30 -7 0 -7
0 -8 28 -8 27 -2 58 -1 57 10 0 10 0 -5 6 -6 5 25 62 25 62 2 10 2 10 23 50
23 50 25 75 25 75 5 30 5 30 10 12 10 12 -7 10 -6 11 10 19 11 19 4 43 4 44 3
0 2 0 3 35 4 35 5 45 6 45 0 45 0 44 9 6 10 6 -38 36 -37 36 -119 116 -119
116 7 0 7 0 -49 48 -48 47 -39 50 -39 50 -23 21 -23 21 0 7 0 6 -17 19 -18 20
-15 17 -15 18 -47 69 -48 69 0 5 0 5 -18 26 -18 27 -19 50 -19 50 -3 25 -4 25
0 45 -1 45 6 45 6 45 4 20 4 20 16 45 17 45 6 25 7 25 -2 39 -2 40 9 5 9 6 5
90 6 90 5 25 5 25 4 25 5 25 15 48 15 47 -4 0 -4 0 20 50 20 50 -7 0 -7 0 12
12 12 12 0 12 0 11 19 44 20 44 0 9 -1 9 12 7 11 7 3 14 2 14 27 53 27 52 26
53 26 52 21 30 21 29 3 15 2 14 9 6 9 6 49 100 49 100 5 5 5 5 2 10 2 10 47
110 46 110 12 30 11 30 23 39 23 39 -3 2 -3 3 -45 22 -45 23 -35 23 -35 23
-45 11 -45 12 -170 58 -170 58 -45 17 -45 16 -70 16 -70 15 -96 -1 -97 -2 -16
16 -15 16 -10 37 -9 37 -7 62 -7 61 41 52 41 52 35 73 35 72 30 114 31 114 6
87 6 87 -13 76 -13 76 0 67 0 67 7 85 8 85 -25 67 -26 68 -40 69 -41 69 -43
44 -44 43 -78 38 -79 39 -74 19 -75 19 -71 -1 -71 -1 -60 -13z"></path>
    </a>
    <a xmlns:xlink="https://www.w3.org/1999/xlink">
      <path fill="#cccccc" stroke="none" d="M24895 13846 l-70 -14 -85 -22 -85 -22
-42 -18 -43 -19 -36 -27 -35 -27 -28 -41 -28 -41 -17 -45 -18 -45 -14 -105
-13 -105 -20 -70 -20 -70 0 -40 -1 -40 16 -70 15 -70 14 -135 14 -135 34 -145
34 -145 21 -41 21 -41 35 -47 36 -46 0 -14 0 -13 -17 -15 -18 -16 -130 -64
-130 -65 -149 -68 -148 -69 -48 -43 -48 -43 -71 -84 -71 -83 0 -11 0 -11 16
-35 17 -34 -36 -128 -36 -129 -6 -75 -6 -75 -30 -148 -29 -148 -29 -89 -30
-89 -10 -57 -11 -57 -19 -156 -20 -156 -10 -140 -11 -140 -10 -131 -10 -132
-36 -153 -37 -154 -2 -190 -1 -190 -23 -115 -22 -115 -49 -220 -49 -220 -35
-145 -35 -145 -15 -90 -15 -90 -6 -75 -7 -76 11 -40 11 -40 24 -23 24 -23 33
4 33 3 9 -45 8 -45 -6 -77 -5 -78 -6 -80 -6 -79 22 -45 21 -45 55 -50 54 -50
0 -83 0 -83 15 -176 14 -177 26 -178 26 -179 25 -113 25 -114 40 -115 40 -115
36 -72 36 -71 37 -55 38 -55 48 -48 49 -48 62 -30 61 -31 5 -16 5 -17 81 -235
82 -235 45 -111 44 -112 5 -70 4 -69 10 -44 10 -44 20 -135 20 -135 10 -175
11 -175 10 -235 10 -235 15 -235 14 -235 0 -89 0 -89 11 -11 10 -10 0 -65 0
-66 -24 -51 -23 -50 -152 -161 -152 -161 -37 -29 -37 -29 -47 -32 -47 -32 -78
-28 -78 -28 -72 -42 -73 -43 -25 -43 -25 -43 0 -17 0 -18 -17 -29 -18 -30 15
-9 14 -9 71 -18 70 -18 225 1 225 2 82 10 82 10 46 22 47 23 81 60 82 61 72
48 72 49 108 -28 108 -27 3 -1 2 -2 -24 -55 -24 -55 -12 -82 -12 -81 12 -29
12 -30 31 -11 32 -11 130 -6 130 -5 110 11 110 10 100 32 100 31 75 39 75 39
36 30 37 30 34 52 35 53 13 50 14 50 6 5 7 5 -24 185 -23 185 -19 181 -19 181
-16 31 -16 31 10 6 10 6 -1 142 -2 142 36 216 36 215 37 250 37 249 4 241 5
241 -26 20 -26 21 0 20 0 20 20 95 19 96 11 88 11 88 19 65 19 65 43 70 43 70
28 64 28 65 24 93 24 93 26 162 25 163 44 300 45 300 11 85 11 85 15 69 14 69
2 96 2 96 -2 140 -2 140 -10 50 -10 50 -6 70 -6 70 -2 20 -3 20 -24 4 -24 3
-6 9 -5 9 -22 5 -22 4 -51 27 -50 28 -25 25 -25 25 7 15 7 16 2 15 2 15 6 15
5 15 1 20 1 20 1 18 0 17 10 0 10 0 -6 20 -6 20 10 0 10 0 0 18 0 17 6 25 5
25 5 30 6 30 4 22 3 22 6 9 6 9 5 44 5 44 5 25 4 25 6 35 5 35 7 15 6 15 3 15
4 15 5 35 6 35 5 25 5 25 3 110 4 110 1 0 2 0 3 60 4 60 7 45 8 45 0 58 1 57
7 0 6 0 1 43 1 42 6 40 7 40 3 35 4 35 6 40 7 40 4 25 4 25 4 25 4 25 7 30 7
30 2 25 3 25 7 50 7 50 5 30 6 30 4 40 5 40 4 35 5 35 5 40 5 40 1 115 0 115
16 23 15 24 13 46 14 47 -4 25 -3 25 -7 25 -7 25 -4 95 -3 95 -5 293 -4 292 9
38 10 37 19 50 19 50 7 20 7 20 -1 8 -2 7 11 0 10 0 -6 10 -6 10 10 0 11 0 0
20 0 20 8 0 8 0 22 30 22 30 3 112 4 113 -9 84 -9 85 -22 40 -22 41 -35 12
-35 11 1 14 2 13 3 13 4 14 -130 69 -130 70 -199 106 -199 105 -79 19 -78 19
-51 25 -51 26 -58 122 -58 122 -6 35 -6 35 8 11 7 11 23 12 23 12 11 27 10 27
30 80 30 80 19 65 19 65 0 42 0 43 -20 20 -20 20 -19 0 -18 0 -7 87 -6 87 -21
99 -20 100 -16 31 -16 31 -38 42 -39 43 0 8 0 8 -42 43 -43 43 -47 24 -46 23
-74 21 -73 20 -80 5 -80 4 -70 -13z"></path>
    </a>
    <a xmlns:xlink="https://www.w3.org/1999/xlink">
      <path fill="#cccccc" stroke="none" d="M5505 13843 l-20 -4 -78 -19 -79 -19
-70 -36 -71 -36 -52 -39 -52 -39 -37 -42 -36 -42 -20 -42 -20 -41 0 -52 0 -52
20 -71 19 -70 -14 -5 -15 -4 -14 -4 -15 -5 -7 -38 -7 -38 11 -77 11 -76 29
-75 29 -74 31 -46 31 -46 16 -145 17 -146 -32 -58 -32 -58 -67 -38 -66 -38
-69 10 -70 11 -140 -46 -141 -45 -130 -45 -130 -45 -135 -50 -135 -51 -27 -14
-28 -14 0 -8 0 -9 26 -31 25 -31 -44 -62 -45 -63 -20 -45 -21 -45 -37 -95 -37
-95 -62 -125 -62 -125 -58 -100 -58 -100 -45 -95 -44 -95 -39 -108 -39 -109
-20 -76 -19 -77 -11 -92 -10 -93 -10 -89 -10 -88 -19 -56 -19 -55 -12 -76 -11
-75 10 -58 11 -57 29 -62 29 -62 52 -76 51 -77 66 -82 66 -82 76 -85 76 -85
147 -145 146 -145 -9 -95 -10 -95 -15 -90 -15 -90 -25 -98 -24 -99 -70 -175
-70 -176 0 -49 0 -49 19 -38 20 -38 38 -32 38 -32 23 -19 22 -18 0 -94 0 -93
-15 -215 -15 -215 -9 -110 -10 -110 -6 -95 -6 -95 10 -93 10 -92 39 -90 40
-90 90 -162 90 -163 31 -63 32 -63 70 -74 71 -74 117 -98 116 -97 13 -11 13
-11 -35 -145 -35 -144 -21 -228 -21 -228 7 -52 6 -52 15 -60 15 -60 39 -82 39
-82 11 -51 11 -52 -12 -112 -13 -111 6 -65 6 -65 7 -76 6 -77 -16 -92 -17 -91
6 -32 7 -32 24 -84 24 -83 0 -113 0 -114 10 -28 11 -28 46 -67 45 -67 15 -143
15 -143 -5 -57 -5 -56 -31 -59 -32 -59 -68 -85 -68 -84 -82 -88 -81 -89 -57
-91 -57 -92 0 -40 1 -40 16 -37 15 -37 43 -11 43 -12 156 1 156 0 94 11 95 12
54 24 54 24 76 78 76 77 50 68 49 68 26 5 25 6 11 3 12 3 46 86 47 86 11 0 11
0 51 -38 51 -38 76 -57 76 -57 53 10 53 10 12 0 13 0 53 -44 54 -43 80 -46 80
-46 60 -15 60 -16 90 -10 90 -10 50 0 50 0 105 24 105 24 30 12 30 11 -17 13
-18 13 0 22 0 22 15 5 14 6 6 18 6 19 -20 40 -21 39 -42 35 -43 34 -90 46 -90
47 -85 64 -85 64 -75 78 -75 79 -20 40 -19 40 -7 115 -6 116 -17 31 -16 32 0
20 0 19 36 124 35 123 19 71 20 72 9 83 10 84 35 170 34 170 62 270 62 270 28
135 28 135 -14 20 -14 20 -17 23 -16 23 11 117 11 117 50 186 50 186 45 123
46 122 54 113 53 113 48 73 48 74 30 65 29 65 40 110 39 110 53 185 54 185 17
73 17 72 -6 24 -6 25 -13 13 -13 13 -2 8 -2 7 -15 31 -16 31 6 61 7 62 5 8 5
8 5 32 5 32 2 30 1 30 -12 -2 -13 -3 -24 38 -25 37 -7 30 -7 30 -6 10 -5 10
-4 15 -4 15 -2 65 -2 65 -7 30 -7 30 -4 35 -5 35 -5 20 -4 20 -11 28 -11 28 0
43 0 43 -14 46 -14 47 4 0 5 0 -24 33 -24 32 -17 48 -18 47 2 88 3 87 -17 65
-18 65 7 200 6 200 4 120 4 120 6 65 6 65 3 225 3 225 6 105 7 105 4 85 4 85
5 90 4 90 7 180 6 180 5 55 6 55 4 63 5 63 7 12 7 12 13 80 14 80 4 45 5 45 5
30 6 30 4 33 5 32 4 33 5 32 4 30 5 30 6 25 5 25 6 40 6 40 5 23 4 22 5 25 5
25 5 23 5 22 5 33 5 33 9 18 10 18 -4 5 -5 4 30 92 29 91 -6 64 -6 63 -121 56
-121 57 -30 7 -30 7 -266 98 -266 99 -49 -9 -48 -9 -36 16 -35 17 -3 37 -3 37
43 78 43 78 3 120 4 120 24 20 25 20 25 75 25 75 6 72 6 72 -17 26 -17 25 -20
-10 -19 -11 -10 6 -10 6 1 152 1 152 -22 69 -22 69 -28 26 -28 26 -50 46 -50
47 -56 21 -56 21 -77 20 -77 20 -85 -1 -86 -1 -20 -5z"></path>
    </a>
    <a xmlns:xlink="https://www.w3.org/1999/xlink">
      <path fill="#cccccc" stroke="none" d="M22690 13746 l-6 -5 -94 -11 -95 -10
-70 -11 -70 -11 -35 -19 -35 -18 -100 -68 -100 -69 -27 -79 -27 -80 1 -195 1
-195 -8 -32 -7 -32 21 -29 20 -29 20 -74 20 -74 5 -30 5 -30 34 -127 35 -127
41 -82 42 -82 -5 -13 -5 -13 -34 -18 -34 -18 -39 -26 -39 -26 -55 -18 -55 -18
-35 -17 -35 -17 -50 -12 -50 -12 -30 -4 -30 -3 -52 -21 -52 -20 -78 -40 -78
-39 -60 -47 -60 -46 -17 -22 -18 -22 0 -15 0 -15 20 -13 20 -12 0 -44 0 -45
-9 -23 -8 -23 10 -101 10 -101 -42 -111 -41 -112 -21 -197 -20 -198 -25 -110
-25 -109 -9 -98 -9 -97 -36 -293 -35 -293 -10 -115 -10 -115 -15 -490 -15
-490 -10 -265 -10 -265 -11 -92 -10 -92 15 -30 16 -30 0 -27 0 -27 -31 -96
-31 -96 5 -52 5 -51 36 -116 36 -115 58 -47 57 -48 43 -40 43 -41 20 -32 20
-32 9 -298 9 -298 16 -115 16 -115 8 -5 8 -5 16 -90 16 -90 16 -110 17 -110 2
-12 2 -13 29 -30 28 -30 85 -42 84 -42 19 -24 18 -24 6 -37 6 -36 20 -86 19
-86 0 -45 0 -44 32 -50 32 -49 3 -70 3 -70 20 -285 20 -285 15 -320 14 -320
-5 -60 -5 -60 -9 -205 -9 -205 -10 -65 -9 -65 -16 -71 -16 -71 -9 -120 -9
-121 -27 -51 -28 -50 -186 -183 -186 -184 -61 -36 -61 -35 -64 -22 -64 -22
-35 -16 -35 -17 -56 -35 -57 -35 -18 -35 -19 -35 3 -9 2 -8 -17 -29 -17 -29 5
-5 5 -5 59 -16 60 -16 105 -10 105 -10 80 5 80 6 125 2 125 2 49 19 50 18 102
67 103 67 62 39 62 39 11 0 12 0 122 -32 122 -33 35 21 36 21 11 0 11 0 81 46
81 47 9 16 10 16 3 275 3 275 0 110 -1 110 10 45 9 45 5 20 5 20 21 62 21 61
3 49 4 48 -25 58 -25 58 13 97 14 97 2 325 2 325 6 42 7 42 50 148 50 148 14
160 13 160 7 92 7 92 14 18 14 18 15 -20 16 -20 4 -20 3 -20 16 -115 17 -115
3 -15 3 -15 8 -30 7 -30 20 -65 20 -65 3 -20 4 -20 6 -95 7 -95 4 -340 3 -340
9 -70 10 -70 -3 -105 -2 -105 -11 -79 -11 -78 10 -77 10 -76 5 -50 6 -50 -16
-77 -16 -77 0 -89 0 -90 25 -97 25 -97 2 -22 2 -22 -36 -54 -37 -55 -15 -73
-15 -73 -22 -32 -22 -32 -58 -56 -58 -56 -13 -59 -14 -59 13 -40 12 -40 8 -30
8 -30 55 -13 55 -13 45 -4 45 -4 40 -6 40 -6 10 0 10 0 105 5 105 6 30 4 30 4
22 5 22 6 23 11 23 12 15 18 15 17 55 22 55 22 52 48 52 48 21 47 20 48 0 72
0 72 -16 55 -16 54 7 55 7 55 3 45 4 45 25 205 26 205 20 230 20 230 15 220
14 220 6 115 6 115 10 165 10 165 -5 30 -5 30 -26 140 -26 140 10 42 11 42 0
43 -1 43 -12 55 -13 55 7 40 7 40 -9 157 -9 157 1 8 1 8 -1 26 -1 26 -22 25
-23 25 -25 30 -25 31 -18 28 -18 29 -44 90 -44 90 -16 45 -17 45 -19 58 -19
58 -5 25 -5 24 -6 28 -6 27 -2 21 -3 21 -6 10 -6 10 -6 39 -6 39 -4 20 -4 20
-5 25 -5 25 -6 50 -6 50 -5 25 -4 25 -6 90 -5 90 -6 15 -5 15 -4 55 -5 55 -4
150 -5 150 -9 3 -9 3 -29 28 -30 28 -27 36 -27 35 -11 39 -11 38 2 40 1 40 5
28 5 27 6 28 5 27 0 35 0 35 -3 49 -4 48 -36 3 -35 2 -21 19 -21 20 -15 34
-14 35 4 102 3 102 10 20 11 19 -1 24 0 23 6 30 5 30 3 15 3 15 11 40 12 40 6
35 6 35 3 20 3 20 2 0 3 0 3 15 4 15 6 25 7 25 3 20 4 20 10 34 11 35 -5 4 -4
5 8 16 9 16 6 35 6 35 5 25 6 25 5 25 4 25 7 25 6 25 3 10 2 10 7 30 6 30 5
30 5 30 2 15 3 15 7 12 7 11 0 23 0 24 5 35 6 35 3 185 3 185 6 15 6 15 5 35
5 35 5 20 4 20 2 0 2 0 5 20 5 20 3 25 2 25 2 0 3 0 3 15 4 15 6 25 6 25 5 55
4 55 5 135 5 135 6 25 6 25 4 45 4 45 4 35 5 35 6 50 6 50 4 40 5 40 5 40 6
40 4 25 4 25 5 25 5 25 6 30 6 30 14 30 14 30 11 45 11 45 4 20 3 20 2 0 1 0
4 20 4 20 11 50 10 50 5 30 4 30 6 35 5 35 4 50 4 50 7 30 6 30 5 27 5 27 29
83 30 83 -18 25 -18 25 -7 17 -6 16 22 25 22 24 45 54 45 54 55 55 55 55 55
25 55 25 5 5 5 6 80 34 80 33 8 7 7 6 -15 31 -15 30 -93 27 -93 26 -150 20
-149 20 -90 20 -90 21 -35 4 -35 5 -29 6 -29 6 -68 43 -67 44 -46 82 -47 83
-6 41 -5 42 15 30 16 30 7 54 7 54 16 50 16 50 0 125 0 125 -17 -3 -16 -3 -8
12 -7 12 -9 41 -9 41 -8 135 -8 136 -13 24 -12 25 -77 72 -76 71 -60 12 -60
11 -45 22 -45 21 -55 4 -55 4 -5 -6z"></path>
    </a>
    <a xmlns:xlink="https://www.w3.org/1999/xlink">
      <path fill="#cccccc" stroke="none" d="M11430 13591 l-75 -18 -55 -18 -55 -18
-85 -86 -86 -86 -23 -48 -23 -48 6 -152 7 -152 10 -47 11 -46 -23 -23 -22 -22
6 -121 6 -121 11 -40 11 -40 16 -38 16 -37 34 -21 33 -21 9 -16 8 -17 18 -107
18 -106 -39 -49 -38 -48 -6 -7 -5 -7 -71 10 -71 10 -189 -50 -189 -50 -85 -25
-85 -24 3 -13 4 -14 3 -15 3 -15 26 -55 26 -55 0 -13 0 -13 15 -28 14 -28 7
-29 7 -29 4 -45 3 -45 3 -20 3 -20 9 -30 8 -30 7 -10 7 -10 14 -40 13 -40 2
-10 3 -10 6 -25 7 -25 4 -35 4 -35 5 -92 5 -93 -9 0 -8 0 1 -187 1 -188 -8
-155 -8 -155 -5 -130 -4 -130 -4 -175 -3 -175 -2 -450 -3 -450 7 -30 6 -30 14
-50 14 -50 0 -25 -1 -25 6 -60 5 -60 7 -45 7 -45 4 -45 5 -45 4 -60 5 -60 1
-40 0 -40 -5 -30 -5 -30 -6 -25 -5 -25 -6 -40 -6 -40 -5 -40 -4 -39 -5 -23 -5
-23 -6 -27 -5 -28 -33 -35 -33 -35 -28 -74 -28 -73 12 -37 11 -36 16 -85 16
-85 40 -98 39 -97 -2 -188 -2 -187 17 -40 17 -40 9 -255 9 -255 20 -90 19 -90
51 -152 51 -151 11 -71 12 -72 -13 -55 -14 -56 13 -41 13 -42 10 -235 10 -235
2 -245 3 -245 7 -45 8 -45 51 -104 51 -104 -4 -86 -3 -86 -1 -60 0 -60 34 -60
34 -59 7 -157 7 -157 38 -77 37 -78 4 -71 4 -71 16 -37 16 -37 -6 -103 -5
-103 -22 -60 -21 -60 5 -61 6 -61 -31 -64 -32 -64 -13 -50 -14 -50 0 -53 0
-54 28 -28 29 -28 39 -11 39 -11 83 0 83 0 97 10 97 11 54 26 53 26 18 41 18
41 6 98 6 98 31 87 32 87 4 45 4 45 -20 57 -20 57 10 118 9 118 10 120 10 120
10 50 10 50 -9 100 -10 100 -8 225 -8 225 4 95 5 95 0 145 0 145 -4 125 -4
125 11 265 11 265 22 65 22 65 5 55 5 55 15 41 15 41 -25 89 -24 89 8 70 9 70
23 83 22 84 10 0 10 1 56 -114 57 -114 17 -89 17 -90 8 -135 9 -136 11 -35 11
-35 9 -81 10 -80 21 -60 20 -59 10 -145 9 -145 11 -145 10 -145 16 -140 15
-140 30 -165 29 -165 9 -100 9 -100 18 -60 18 -60 1 -205 0 -205 23 -123 24
-123 -28 -130 -28 -129 6 -98 6 -97 16 -52 15 -52 33 -23 32 -23 165 -3 165
-4 53 12 53 12 75 -51 75 -50 82 -27 82 -26 81 -3 80 -2 24 -13 24 -13 75 6
76 5 40 18 40 19 47 38 48 39 11 39 12 39 14 11 13 11 0 9 0 9 -20 0 -20 0 0
10 0 9 -31 35 -31 35 -36 6 -37 6 -41 20 -41 19 -17 0 -17 0 -22 12 -22 11
-82 71 -81 71 -48 39 -47 40 -45 60 -44 61 -23 46 -23 45 -7 130 -6 129 10
350 10 350 21 175 20 175 -1 95 0 95 -8 43 -8 42 -26 24 -26 24 -7 37 -7 37 9
67 8 66 0 80 0 80 -24 45 -23 45 -5 200 -4 200 1 280 1 280 26 140 26 140 1
80 1 80 -2 120 -3 120 15 65 16 65 0 15 0 15 -73 76 -73 75 -20 35 -21 35 -8
29 -8 30 -4 15 -4 15 -4 40 -3 40 -3 49 -3 48 -22 15 -22 14 -28 42 -27 42 0
12 0 13 -6 0 -6 0 -2 228 -1 227 -5 45 -4 45 -8 50 -8 50 -2 110 -3 110 -6 23
-6 22 -4 19 -4 19 -16 45 -15 46 -6 28 -6 28 -5 25 -4 25 -9 60 -8 60 3 200 3
200 5 60 5 60 5 55 5 55 6 50 5 50 5 50 5 50 5 60 6 60 4 55 4 55 6 65 6 65 4
60 5 60 5 65 6 65 4 55 4 55 6 50 6 50 4 35 4 35 5 25 5 25 4 15 4 15 12 44
12 43 11 27 11 26 2 5 2 5 6 18 7 17 7 18 6 17 3 10 2 10 35 105 34 105 8 35
8 35 3 20 3 20 6 40 6 40 3 30 3 30 3 0 2 0 3 25 4 25 9 35 9 35 18 35 17 35
15 16 14 17 2 23 2 24 23 23 22 22 9 0 9 0 12 15 12 15 9 -6 9 -5 0 8 0 9 31
11 32 12 -7 62 -7 61 -10 25 -9 24 0 48 0 47 -27 55 -28 54 -130 17 -130 17
-120 15 -120 16 -115 21 -115 21 -80 8 -80 8 -27 33 -28 33 6 36 6 35 24 89
23 89 25 36 24 36 11 91 11 90 0 113 0 112 -14 27 -13 27 -8 40 -8 40 -2 80
-3 80 -27 105 -27 105 -22 23 -21 24 -63 44 -63 44 -39 20 -40 20 -72 16 -73
15 -130 4 -130 5 -75 -19z"></path>
    </a>
    <a xmlns:xlink="https://www.w3.org/1999/xlink">
      <path fill="#cccccc" stroke="none" d="M14427 13570 l-58 -9 -71 -38 -71 -37
-65 -62 -65 -62 7 -11 7 -10 -51 -37 -51 -37 -30 -58 -29 -58 0 -151 0 -151
-20 -27 -20 -27 -11 -76 -11 -77 35 -78 35 -79 29 -70 28 -70 32 -9 31 -10 7
-100 6 -101 11 -53 11 -53 -29 -62 -29 -62 -25 -22 -24 -22 -6 9 -6 9 -39 6
-40 7 -95 -43 -95 -42 -130 -54 -130 -55 -75 -28 -75 -29 -85 -26 -85 -25 -65
-38 -65 -37 -5 -30 -5 -30 -28 -41 -28 -42 -14 -53 -15 -54 -16 -105 -16 -105
-29 -105 -30 -105 -53 -150 -53 -150 -11 -50 -11 -51 -10 -109 -11 -110 -5
-55 -4 -55 -6 -60 -5 -60 -10 -135 -11 -135 -14 -155 -15 -155 -5 -45 -4 -45
-12 -120 -12 -120 0 -175 0 -175 17 -102 16 -102 26 -78 26 -78 8 -155 9 -155
10 -90 11 -90 0 -205 0 -205 19 -41 19 -41 34 -27 35 -26 6 -78 7 -77 5 -25 5
-25 6 -30 6 -29 27 -43 27 -44 79 -80 78 -80 -6 -237 -6 -237 -11 -160 -11
-160 6 -115 6 -115 10 -64 10 -63 25 -62 26 -61 63 -90 63 -90 96 -94 96 -94
35 -104 35 -105 0 -69 0 -69 -31 -51 -32 -51 16 -127 16 -126 54 -230 55 -230
26 -145 26 -145 0 -180 0 -180 14 -66 14 -66 45 -89 45 -89 16 -54 16 -54 13
-21 13 -21 54 -155 54 -155 0 -80 0 -80 -44 -70 -44 -70 -46 -56 -45 -56 -61
-85 -62 -84 -18 -35 -19 -34 0 -93 0 -94 28 -24 27 -23 43 -13 42 -13 155 1
155 0 60 18 59 18 39 19 38 20 39 35 39 35 20 43 21 42 11 58 10 57 41 37 41
37 20 45 21 45 12 310 13 310 12 68 13 67 -28 183 -29 182 -8 325 -8 325 -11
360 -10 360 -6 41 -6 41 11 88 12 88 33 101 34 101 6 72 6 71 21 49 22 48 -1
102 -1 101 14 5 14 6 11 -14 11 -13 29 -85 29 -85 10 -94 11 -95 14 -39 14
-39 21 -45 21 -45 0 -48 0 -47 30 -135 30 -135 0 -35 0 -36 -14 -22 -15 -22
-12 -65 -12 -65 0 -100 0 -100 26 -120 26 -120 18 -170 18 -170 -1 -160 0
-160 -22 -105 -21 -105 -12 -90 -12 -90 6 -90 5 -90 22 -95 21 -95 15 -47 15
-47 -15 -78 -15 -78 -15 -70 -16 -70 0 -47 0 -47 11 -28 10 -28 31 -32 32 -33
35 -10 36 -11 36 -16 36 -15 22 -82 22 -82 19 -31 18 -31 56 -21 56 -21 84 -9
85 -10 38 5 38 6 80 14 80 15 63 20 62 21 15 28 15 29 0 51 0 51 -14 32 -13
32 -80 85 -79 86 -32 46 -31 46 -35 78 -34 79 -27 84 -28 84 6 61 5 61 40 92
41 92 30 98 31 98 19 85 20 85 30 235 31 235 41 315 41 315 5 116 6 116 -12
49 -12 49 16 38 16 38 9 161 10 161 94 281 94 281 20 105 20 105 11 95 11 95
10 205 11 205 20 120 20 120 9 67 8 68 22 44 21 44 29 10 29 11 15 29 16 30
31 7 31 7 14 35 15 35 9 101 9 102 1 68 0 69 -17 63 -17 64 21 43 21 43 16
135 17 135 5 40 4 40 4 100 5 100 10 33 10 33 5 67 6 67 5 90 6 90 9 105 10
105 5 25 5 25 15 159 16 159 3 146 4 146 -18 170 -19 170 -11 125 -11 125 -25
171 -24 170 -29 160 -29 159 -32 140 -31 140 -39 155 -39 155 -40 135 -40 135
-33 30 -33 31 3 22 3 21 -33 21 -33 20 -204 67 -204 66 -181 68 -181 69 -57
11 -57 11 -32 -11 -32 -11 -2 2 -1 3 -33 43 -33 43 21 57 20 57 15 65 14 65 7
55 6 55 22 60 21 60 3 110 2 110 7 90 7 91 -28 94 -28 95 -8 37 -9 36 -58 89
-59 88 -48 53 -48 53 -31 16 -31 16 -46 42 -46 43 -41 21 -41 21 -68 4 -68 5
-58 -9z"></path>
    </a>
  </g>
</svg>